<svg width="110" height="110" fill="none" xmlns="http://www.w3.org/2000/svg"><circle cx="55" cy="55" r="55" fill="green" fill-opacity=".1"/><path d="M67.25 62.901c0-8.076-6.615-8.997-11.93-9.735-5.792-.805-9.07-1.505-9.07-6.492 0-4.187 4.387-5.674 8.145-5.674a11.82 11.82 0 019.744 4.599l2.723-2.198a15.139 15.139 0 00-10.112-5.733V32.25h-3.5v5.288c-6.326.386-10.5 3.956-10.5 9.136 0 8.277 6.703 9.21 12.087 9.957 5.693.793 8.913 1.474 8.913 6.27C63.75 68.207 58.267 69 55 69c-6.002 0-8.536-1.687-10.888-4.599l-2.723 2.198a14.767 14.767 0 0011.861 5.84v5.311h3.5v-5.329c6.52-.532 10.5-4.072 10.5-9.52z" fill="#23B123"/></svg>