<svg width="202" height="29" fill="none" xmlns="http://www.w3.org/2000/svg"><g clip-path="url(#clip0_1_802)" fill="#fff" fill-opacity=".5"><path d="M48.913 12.127l-.347 1.711h-.087c-.434-.957-1.65-2.292-4.344-2.292-4.344 0-8.775 3.366-9.76 8.675-.84 4.642 1.39 8.732 6.545 8.732 1.883 0 4.055-.725 5.184-2.32h.087l-.319 1.74h4.808l3.012-16.246h-4.779zM47.35 20.22c-.319 1.595-1.825 4.177-4.837 4.177-2.954 0-3.562-2.61-3.301-4.12.347-1.856 1.998-4.177 4.807-4.177 2.751.03 3.678 2.205 3.33 4.12zm9.066-8.093h4.518l-.32 1.711h.088c.579-.783 1.709-2.292 4.489-2.292l-.898 4.932c-2.288.03-3.939.493-4.373 2.988l-1.65 8.907h-4.866l3.012-16.246zm12.047-6.354h4.865L71.04 18.016h.087l5.619-5.89h5.705l-7.414 7.138 4.257 9.109h-5.502l-3.128-7.833h-.087l-1.42 7.833h-4.894l4.2-22.6z"/><path d="M90.24 11.546c-4.922 0-9.296 4.236-10.106 8.762-.898 4.816 2.345 8.616 7.008 8.616 1.65 0 3.36-.493 4.865-1.48 1.535-.928 2.954-2.32 4.055-4.148H91.11c-.811.841-1.738 1.509-3.244 1.509-1.882 0-3.302-1.132-3.215-3.076h12.164c.145-.377.231-.667.347-1.276.927-4.961-1.969-8.907-6.921-8.907zm-4.922 6.905c.376-.957 1.708-2.785 4.228-2.785 2.52 0 3.127 1.828 3.127 2.785h-7.356zM27.947 5.773l-8.572 12.881h-.058V5.774h-4.142L0 28.372h5.879l8.514-12.881h.087v12.881h4.17l8.515-12.881h.087v12.881h4.865v-22.6h-4.17zm81.524 6.354h-3.07l.898-4.816h-4.257l-.348 1.857c-.376 2.117-1.708 2.756-3.475 2.959h-.029l-.724 3.684h2.404l-2.317 12.562h4.836l2.317-12.562h3.099l.666-3.684zm75.066 10.096c-1.593 3.684-5.387 6.701-9.76 6.701-4.923 0-7.964-3.887-7.095-8.732.898-4.758 5.3-8.646 10.165-8.646 4.286 0 7.24 2.873 7.327 6.847h-4.923c-.319-1.131-1.043-2.292-3.099-2.292-2.288-.116-4.17 1.77-4.605 4.12-.434 2.379.782 4.148 3.099 4.148 1.998 0 3.215-1.16 3.91-2.175h4.981v.029zM144.34 0l-9.441 5.773h2.664l-8.543 12.881h-.087V5.774h-4.171l-8.543 12.88h-.087V5.774h-4.865v22.6h4.228l8.543-12.882h.087v12.881h4.171l15.117-22.6h2.404L144.34 0zm9.209 28.373h-4.807l.318-1.74h-.086c-1.13 1.595-3.302 2.32-5.184 2.32-5.155 0-7.385-4.061-6.546-8.732.956-5.31 5.416-8.675 9.76-8.675 2.665 0 3.91 1.306 4.344 2.292h.087l.348-1.711h4.807l-3.041 16.246zm-8.167-3.945c3.012 0 4.518-2.611 4.837-4.178.347-1.944-.579-4.12-3.331-4.12-2.78 0-4.46 2.321-4.807 4.178-.261 1.509.347 4.12 3.301 4.12zm23.314-12.301h-3.041l.898-4.816h-4.258l-.347 1.857c-.377 2.117-1.709 2.756-3.475 2.959h-.058l-.695 3.684h2.403l-2.317 12.562h4.837l2.317-12.562h3.099l.637-3.684zm20.417-6.354h4.836l-1.477 8.065h.087c1.043-1.508 2.433-2.291 4.576-2.291 1.535 0 3.301.58 4.112 1.827 1.043 1.596.927 3.017.377 5.919l-1.651 9.08h-4.836l1.621-8.848c.145-.784.609-3.424-1.969-3.424-2.722 0-3.186 2.437-3.33 3.25l-1.651 8.993h-4.836l4.141-22.57z"/></g><defs><clipPath id="clip0_1_802"><path fill="#fff" d="M0 0h202v28.953H0z"/></clipPath></defs></svg>