<svg width="175" height="48" fill="none" xmlns="http://www.w3.org/2000/svg"><path d="M99.138 15.925c0-5.075.087-9.8.35-14.175L86.1 4.287v1.226l1.313.175c.962.087 1.575.437 1.925.962.35.612.612 1.487.787 2.8.175 2.538.35 8.313.263 17.413 0 9.012-.088 14.7-.263 16.887 4.813 1.05 8.575 1.487 11.375 1.487 5.25 0 9.363-1.487 12.338-4.55 2.975-2.974 4.55-7.174 4.55-12.337 0-4.113-1.138-7.525-3.413-10.238-2.275-2.712-5.163-4.024-8.575-4.024-2.275 0-4.637.612-7.263 1.837zm.262 26.95c-.175-2.8-.35-11.2-.35-24.938.788-.262 1.838-.437 3.15-.437 2.1 0 3.763 1.05 4.988 3.238 1.224 2.187 1.837 4.812 1.837 8.137 0 4.112-.7 7.438-2.1 10.237-1.4 2.713-3.15 4.113-5.337 4.113-.701-.175-1.4-.263-2.188-.35zM35.875 2.625h-35v1.75l1.837.175c1.4.263 2.363.788 2.975 1.575.613.875.963 2.275 1.05 4.2.7 9.45.7 18.288 0 26.425-.175 1.925-.524 3.325-1.05 4.2-.612.875-1.575 1.4-2.975 1.575l-1.837.263v1.75H23.45v-1.75l-2.363-.175c-1.4-.175-2.362-.788-2.974-1.575-.613-.875-.963-2.275-1.05-4.2a160.48 160.48 0 01-.438-11.988l4.725.087c2.537.088 4.287 2.013 5.162 5.863h1.75V16.538h-1.75c-.875 3.762-2.537 5.687-5.162 5.774l-4.725.088c0-7.875.175-13.475.438-16.887h6.912c4.9 0 8.225 3.15 10.15 9.45l2.1-.613-.35-11.725zm-4.113 26.95c0 4.55 1.313 8.313 3.85 11.287 2.538 2.975 6.3 4.375 11.026 4.375 4.724 0 8.575-1.487 11.375-4.55 2.8-2.974 4.112-6.737 4.112-11.287 0-4.55-1.313-8.313-3.85-11.287-2.538-2.976-6.3-4.375-11.025-4.375-4.725 0-8.575 1.487-11.375 4.55-2.8 2.974-4.113 6.737-4.113 11.287zM51.276 19.6c1.05 2.537 1.488 5.862 1.488 9.887 0 9.276-1.925 13.826-5.688 13.826-1.925 0-3.413-1.313-4.463-3.938-1.05-2.625-1.487-5.95-1.487-9.887 0-9.188 1.925-13.738 5.688-13.738 1.924-.088 3.412 1.225 4.462 3.85zm73.938 21.262c2.887 2.888 6.562 4.375 10.937 4.375 2.713 0 5.075-.525 7.175-1.662 2.1-1.05 3.762-2.363 4.9-3.938l-.875-1.05c-1.925 1.488-4.112 2.188-6.65 2.188-3.5 0-6.212-1.137-8.05-3.5-1.925-2.362-2.8-5.337-2.625-9.188h18.725c0-4.2-1.05-7.612-3.238-10.325-2.187-2.625-5.25-3.937-9.187-3.937-4.9 0-8.662 1.575-11.375 4.637-2.712 3.063-4.025 6.826-4.025 11.288 0 4.55 1.4 8.225 4.288 11.112zm6.475-21.962c.962-2.1 2.187-3.15 3.849-3.15 2.625 0 3.938 3.325 3.938 10.063l-9.275.175c.088-2.625.525-4.988 1.488-7.088zm40.599-3.5c-2.362-1.05-5.337-1.662-8.924-1.662-3.675 0-6.563.962-8.75 2.8-2.188 1.837-3.326 4.112-3.326 6.825 0 2.362.701 4.2 2.013 5.512 1.313 1.313 3.412 2.45 6.125 3.413 2.45.875 4.2 1.75 5.075 2.537.875.875 1.4 1.837 1.4 3.15 0 1.225-.438 2.362-1.4 3.237-.875.963-2.1 1.4-3.675 1.4-3.85 0-6.737-2.8-8.75-8.4l-1.487.438.35 8.75c3.149 1.225 6.649 1.837 10.5 1.837 4.024 0 7.087-.875 9.362-2.712 2.275-1.75 3.413-4.288 3.413-7.438 0-2.1-.525-3.85-1.663-5.162-1.138-1.313-2.975-2.45-5.6-3.5-2.888-1.05-4.9-2.012-5.95-2.887-1.05-.875-1.575-1.925-1.575-3.238s.35-2.363 1.137-3.238c.788-.875 1.75-1.225 2.975-1.225 3.5 0 6.038 2.538 7.613 7.526l1.487-.438-.35-7.525zm-84.175-.787c-1.224-.613-2.537-.875-4.024-.875-1.488 0-2.975.612-4.638 1.837-1.663 1.225-2.888 2.887-3.85 5.163l.088-7-13.3 2.625v1.224l1.312.088c1.662.175 2.625 1.488 2.8 3.85.525 5.425.525 11.2 0 17.325-.175 2.362-1.138 3.587-2.8 3.85l-1.313.175v1.663h18.55v-1.663l-2.362-.175c-1.663-.175-2.625-1.488-2.8-3.85-.525-5.075-.613-10.5-.175-16.1.525-.875 1.663-1.4 3.413-1.575 1.75-.175 3.762.35 5.862 1.575l3.237-8.137z" fill="#fff" fill-opacity=".5"/></svg>