<svg width="46" height="46" fill="none" xmlns="http://www.w3.org/2000/svg"><path d="M45.5 34.002l-.49-.288c-.038-.022-3.786-2.246-4.717-4.944l-.208-.598-.384.502c-.012.015-.544.674-2.035 1.447-1.103-6.28-4.856-13.777-9.788-16.974 1.41.114 2.825-.003 4.19-.5.822-.298.467-1.637-.363-1.334-1.119.407-2.24.518-3.359.461 2.747-2.518 4.904-6.376 4.904-9.198 0-.678 0-1.94-1.005-1.94-.403 0-.73.252-1.18.6-.692.533-1.736 1.34-3.27 1.34-.584 0-1.653-.617-2.513-1.112C24.244.867 23.58.5 23.022.5c-.924 0-2.282.747-3.481 1.406-.488.268-1.154.636-1.292.67-1.737 0-2.746-.8-3.415-1.33-.39-.311-.673-.536-1.05-.536-.989 0-.989 1.186-.989 2.559 0 2.65 2.02 6.15 4.663 8.5-1.665.12-3.308.623-4.462 1.741-.638.617.328 1.595.963.98.96-.93 2.218-1.329 3.563-1.406.038.138.085.273.142.405-5.637 4.051-9.642 13.67-9.642 20.163 0 .64.05 1.22.127 1.767-1.454-.646-1.984-1.212-1.995-1.225l-.387-.447-.19.563c-.843 2.478-4.504 4.627-4.54 4.65l-.537.31.545.295c.192.104.381.195.573.293l-.346.239.183 2.28 14.29 3.123 5.418-3.466c.546.003 1.1.005 1.663.005l6.333 3.461L43.476 41v-2.407l-.379-.227c.189-.12.378-.242.566-.368l.502-.335-.11-.054.638-.175.108-2.502-.369-.262c.197-.118.392-.238.589-.362l.479-.306zM14.16 3.269c0-.333.004-.593.011-.794.115.09.248.188.39.29C15 3.81 15.827 5.318 17.23 6.267c1.704 1.155 1.477-.172 2.386-1.384.91-1.212 1.524-1.846 3.047 1.27.664 1.358 1.77-2.438 2.821-2.992.279.151.556.292.828.412 1.886 3.066 2.76 2.11 4.434-.438.46-.27.839-.56 1.14-.792l.002.234c0 2.407-1.967 5.86-4.376 8.112a2.692 2.692 0 00-.481-.79c-.973-1.101-2.493.12-3.214.922-1.279-.41-3.362-1.542-4.72-.894a3.457 3.457 0 00-.92.623c-2.22-2.024-4.016-4.945-4.016-7.282zm12.153 8.23a17.6 17.6 0 01-1.003-.24c.419-.36.803-.486.964.05.017.059.027.125.039.19zm-5.7.466c-.248-.047-.503-.09-.766-.123a10.692 10.692 0 01-.584-.394c.685-.46 1.867-.216 2.997.168a8.13 8.13 0 00-1.647.35zm.34 1.98c-.42.105-.877.063-1.273-.094.161-.085.323-.159.485-.233.262.127.525.233.788.327zM7.081 41.285a29.497 29.497 0 01-5.185-2.05c1.018-.67 3.235-2.287 4.137-4.231.618.485 2.044 1.37 4.822 2.05-.047.076-.105.158-.16.238-2.372-.621-3.72-1.406-3.742-1.42l-.327-.195-.157.35c-.206.46-.69.529-.959.529a1.27 1.27 0 01-.132-.006l-.268-.04-.097.257c-.2.523-1.019 1.207-1.319 1.427l-.5.368.572.235c.213.087.271.167.274.188.008.051-.083.188-.18.267l-.436.351.507.235c1.04.48 2.219.878 3.397 1.206l-.248.24zm6.048-2.795a25.023 25.023 0 004.284.227c.018.057.044.11.078.16a.785.785 0 00.27.25l-1.914 1.636a2.493 2.493 0 00-.11-.002c-.852 0-1.488.313-1.793.871a51.327 51.327 0 01-3.452-.56c.92-.818 1.8-1.68 2.636-2.582zm-8.512.898a.822.822 0 00.097-.502.762.762 0 00-.23-.442c.337-.289.801-.734 1.056-1.196.58-.008 1.058-.227 1.36-.616.507.266 1.651.802 3.341 1.267-.69.866-1.621 1.849-2.345 2.579-1.128-.299-2.264-.659-3.28-1.09zm10.688 3.156l-.154.001c-.646 0-2.785-.053-5.612-.641.099-.084.202-.17.297-.253 2.293.48 4.143.685 4.282.7l.274.03.085-.267c.185-.574.868-.659 1.26-.659.107 0 .178.007.187.008l.145.015 3.325-2.84-.889-.03c-.297-.01-.422-.077-.453-.123l.189-.492-.521.021c-.38.017-.75.025-1.112.025h-.001c-1.047 0-2.018-.069-2.916-.178l.208-.246c1.813.242 3.982.392 6.602.373-.626.877-2.186 2.743-5.196 4.556zm7.518-3.258v1.368c-.427 0-.842-.001-1.249-.004l-.122-1.54-1.016.082c.684-.809.976-1.348 1.003-1.397l.275-.52-.581.01c-5.564.102-9.192-.56-11.483-1.297a9.657 9.657 0 01-.264-2.335c0-6.092 3.893-15.3 9.062-19.033.916.886 2.305 1.274 3.625.412.29-.189.541-.437.778-.7.056.002.114.014.17.014.19 0 .382-.015.573-.04.242.098.48.195.699.292 1.052.463 1.95.175 2.564-.464 4.735 2.865 8.529 10.444 9.527 16.57-2.165.866-5.598 1.71-10.868 1.858 1.04-.593 1.82-1.592 1.54-2.905-.296-1.387-1.455-1.777-2.656-1.841a159.09 159.09 0 01.002-1.954c.368.163.721.35 1.042.55.567.357 1.08-.566.517-.923a7.716 7.716 0 00-1.554-.749c.008-.755.011-1.507.011-2.26.001-.69-1.024-.69-1.024 0 0 .662-.005 1.323-.01 1.984a5.322 5.322 0 00-1.652-.028c-.09-.496-.197-.989-.324-1.477-.17-.665-1.16-.383-.988.283.126.48.229.956.313 1.44-.043.017-.09.025-.133.045-1.389.55-2.237 1.951-1.22 3.258.473.61 1.092.855 1.769.937.037.902.06 1.805.086 2.707a6.849 6.849 0 01-1.241-1.073c-.463-.489-1.187.267-.724.755.629.67 1.29 1.176 2.006 1.5.032.77.078 1.542.153 2.309.066.68 1.092.684 1.025 0a40.339 40.339 0 01-.14-1.993c.39.068.8.085 1.234.044.049.71.106 1.419.187 2.128a.566.566 0 00.721.484l-.063 1.473c-.452.04-.912.078-1.392.11l-.572.037.305.492c.03.05.376.596 1.148 1.392h-1.059v-.002zm18.666-4.937c-.943.443-2.135.85-3.35 1.205-.747-.772-1.703-1.802-2.416-2.715 1.59-.482 2.479-.979 2.88-1.246.317.28.737.425 1.234.424.165 0 .312-.016.424-.034.36.467.94 1.006 1.304 1.327-.172.176-.255.371-.248.582a.79.79 0 00.172.457zm-5.366 2.465c.153.135.311.273.472.412-3.04.806-5.303.894-5.796.902-3.148-1.92-4.78-3.953-5.41-4.868 2.635-.066 4.813-.304 6.63-.633.074.09.148.18.224.27-1.46.227-2.932.373-4.408.437l-.605.026.333.509s-.068.127-.515.214l-.727.142 3.573 2.892.167-.045c.003 0 .318-.085.7-.085.549 0 .925.167 1.114.494l.12.207.233-.041a65.45 65.45 0 003.895-.834zM25.55 34.608l-.854-.046a55.04 55.04 0 01-.109-1.278c.15.249.457.717.963 1.324zm-1.056-2.746a78.55 78.55 0 01-.09-3.03c.124.004.245.016.36.032 1.327.201 1.673 1.676.638 2.505a3.34 3.34 0 01-.908.493zm7.83 5.065c-.337-.415-.871-.633-1.563-.633-.289 0-.543.04-.703.07l-2.247-1.82a.847.847 0 00.382-.409.717.717 0 00.039-.128c1.78-.098 3.28-.276 4.549-.493a39.85 39.85 0 002.717 2.733c-1.472.35-2.7.59-3.175.68zm-8.945-8.068c.014 1.087.041 2.176.099 3.262-.097.015-.192.034-.288.044-.322.037-.628.01-.919-.064-.037-1.05-.06-2.102-.1-3.153.403-.019.812-.059 1.208-.09zm-1.26-.949a33.239 33.239 0 00-.233-2.465 4.007 4.007 0 011.49.076c-.005.767-.006 1.534-.003 2.3-.33.018-.642.05-.918.075a4.73 4.73 0 01-.336.014zm-1.03-.131c-.063-.018-.126-.031-.191-.053a2.005 2.005 0 01-.793-.5c-.64-.598.238-1.184.793-1.462.087.667.147 1.34.192 2.015zm8.279 14.6c-3.256-1.664-5.003-3.513-5.697-4.37.499-.037.97-.082 1.438-.13l5.338 3.466 11.708-3.216c-6.038 3.639-12.002 4.193-12.788 4.25zm9.668-5.918l-.346-.348c1.332-.403 2.62-.871 3.581-1.386l.584-.314-.592-.301c-.133-.069-.262-.194-.265-.241.002-.018.054-.114.282-.245l.433-.248-.386-.322c-.011-.01-1.214-1.008-1.636-1.65l-.14-.21-.239.07c-.002 0-.207.059-.474.059-.413 0-.722-.134-.92-.4l-.219-.29-.274.236c-.015.012-.864.709-3.144 1.367a7.805 7.805 0 01-.216-.33c2.763-.837 4.175-1.851 4.788-2.406.982 2.125 3.321 3.837 4.337 4.508a28.484 28.484 0 01-5.154 2.45z" fill="#fff"/></svg>