<svg width="143" height="25" fill="none" xmlns="http://www.w3.org/2000/svg"><path stroke="#fff" stroke-width="4" stroke-linecap="round" d="M2 4.5v16m10-14v12m10-10v8"/><path d="M32.816 19V.85h9.482v1.969h-7.964l.715-.583v7.678l-.715-.99h7.469v1.958h-7.469l.715-.99V19h-2.233zm17.211.352c-1.049 0-1.998-.257-2.849-.77a5.695 5.695 0 01-2.013-2.134c-.491-.902-.737-1.932-.737-3.091 0-1.144.242-2.163.726-3.058a5.528 5.528 0 011.991-2.134c.843-.52 1.804-.781 2.882-.781.953 0 1.822.213 2.607.638a4.547 4.547 0 011.837 1.771V7.736h2.134V19h-2.134v-2.112a5.27 5.27 0 01-1.892 1.815 5.12 5.12 0 01-2.552.649zm.572-1.837c.77 0 1.448-.176 2.035-.528.594-.36 1.06-.85 1.397-1.474.337-.623.506-1.338.506-2.145 0-.807-.169-1.522-.506-2.145a3.726 3.726 0 00-1.397-1.463c-.587-.36-1.265-.539-2.035-.539-.763 0-1.441.18-2.035.539a3.806 3.806 0 00-1.408 1.463c-.337.623-.506 1.338-.506 2.145 0 .8.169 1.514.506 2.145a3.887 3.887 0 001.408 1.474c.594.352 1.272.528 2.035.528zM61.109 19V7.736h2.133v1.65c.375-.653.851-1.148 1.43-1.485.58-.345 1.236-.517 1.97-.517.352 0 .707.044 1.067.132.366.08.681.19.945.33l-.88 1.804a3.237 3.237 0 00-.791-.297 3.61 3.61 0 00-.848-.11c-.49 0-.96.128-1.407.385-.44.25-.8.576-1.078.979a2.283 2.283 0 00-.407 1.298V19h-2.135zm10.183 0V7.736h2.134v1.452c.477-.601 1.016-1.052 1.617-1.353a4.413 4.413 0 012.002-.451c.91 0 1.709.209 2.398.627.69.41 1.17.972 1.441 1.683.47-.719 1.034-1.283 1.694-1.694.66-.41 1.434-.616 2.321-.616.807 0 1.522.165 2.145.495a3.64 3.64 0 011.474 1.43c.36.623.54 1.379.54 2.266V19h-2.135v-6.831c0-.939-.246-1.683-.737-2.233s-1.144-.825-1.958-.825a3.13 3.13 0 00-1.529.374 2.933 2.933 0 00-1.067.957c-.257.389-.385.8-.385 1.232V19h-2.134v-6.974c0-.887-.242-1.595-.726-2.123-.484-.528-1.13-.792-1.936-.792-.565 0-1.078.121-1.54.363a2.992 2.992 0 00-1.089.924 2.074 2.074 0 00-.396 1.199V19h-2.134zm28.323 0L92.003.85h2.53l5.962 14.784L106.457.85h2.519L101.364 19h-1.749zm16.264.352c-1.181 0-2.241-.26-3.179-.781a5.882 5.882 0 01-2.222-2.123c-.543-.902-.814-1.918-.814-3.047a5.936 5.936 0 011.749-4.257 5.9 5.9 0 014.246-1.76c1.173 0 2.2.242 3.08.726a5.188 5.188 0 012.068 2.024c.498.865.748 1.87.748 3.014 0 .095-.004.172-.011.231a2.63 2.63 0 01-.044.231h-9.68c0 .785.176 1.478.528 2.079.359.601.85 1.074 1.474 1.419.63.337 1.353.506 2.167.506.77 0 1.459-.158 2.068-.473.608-.315 1.136-.785 1.584-1.408l1.562.814a5.524 5.524 0 01-2.211 2.068c-.932.491-1.969.737-3.113.737zm-3.949-7.315h7.48a3.267 3.267 0 00-.682-1.518 3.474 3.474 0 00-1.309-1.023 3.95 3.95 0 00-1.727-.374c-.66 0-1.258.121-1.793.363a3.37 3.37 0 00-1.309 1.012 3.387 3.387 0 00-.66 1.54zm16.098 7.315c-.939 0-1.771-.202-2.497-.605a4.52 4.52 0 01-1.716-1.749l1.023-1.32c.388.653.858 1.159 1.408 1.518.55.36 1.14.539 1.771.539.41 0 .781-.08 1.111-.242.337-.161.605-.392.803-.693.198-.308.297-.671.297-1.089 0-.403-.103-.719-.308-.946-.198-.235-.495-.44-.891-.616a29.702 29.702 0 00-1.463-.605 12.72 12.72 0 01-1.364-.649 3.496 3.496 0 01-1.089-.913c-.279-.374-.418-.847-.418-1.419 0-.616.165-1.162.495-1.639.337-.477.799-.85 1.386-1.122.586-.271 1.254-.407 2.002-.407.608 0 1.199.121 1.771.363a5.96 5.96 0 011.628 1.045l-.858 1.298c-.763-.807-1.606-1.21-2.53-1.21-.558 0-1.009.143-1.353.429a1.333 1.333 0 00-.517 1.089c0 .345.124.634.374.869.249.227.568.425.957.594.388.169.792.334 1.21.495.63.235 1.18.477 1.65.726.476.25.847.572 1.111.968.264.389.396.913.396 1.573 0 .77-.184 1.434-.55 1.991-.36.557-.869.986-1.529 1.287-.66.293-1.43.44-2.31.44zm10.949 0c-.924 0-1.643-.304-2.156-.913-.514-.616-.77-1.478-.77-2.585V9.353h-1.254V7.736h1.254V3.523h2.134v4.213h2.706v1.617h-2.706v6.369c0 .557.11.986.33 1.287.22.3.535.451.946.451.41 0 .777-.121 1.1-.363l.539 1.705c-.286.169-.62.3-1.001.396a4.22 4.22 0 01-1.122.154z" fill="#fff"/></svg>