<svg width="32" height="32" fill="none" xmlns="http://www.w3.org/2000/svg"><path fill-rule="evenodd" clip-rule="evenodd" d="M8.535 1.5A7.035 7.035 0 001.5 8.535v15.07a7.035 7.035 0 007.035 7.035h15.07a7.035 7.035 0 007.035-7.035V8.535A7.035 7.035 0 0023.605 1.5H8.535zM.5 8.535A8.035 8.035 0 018.535.5h15.07a8.035 8.035 0 018.035 8.035v15.07a8.035 8.035 0 01-8.035 8.035H8.535A8.035 8.035 0 01.5 23.605V8.535zm16.446 2.001a5.528 5.528 0 10-1.622 10.936 5.528 5.528 0 001.622-10.936zm-3.817-.326a6.527 6.527 0 116.013 11.588 6.527 6.527 0 01-6.013-11.588zm11.23-2.929a.5.5 0 100 1h.017a.5.5 0 100-1h-.018z" fill="#23B123"/></svg>