<svg width="258" height="56" fill="none" xmlns="http://www.w3.org/2000/svg"><path d="M27.093 53.219c14.302 0 25.89-11.55 25.89-25.8 0-14.244-11.588-25.793-25.89-25.793-14.299 0-25.89 11.549-25.89 25.794 0 14.25 11.591 25.799 25.89 25.799z" fill="#263238"/><path d="M23.113 31.72h9.529l2.783 1.798H22.693l-5.714 17.6c-6.314-2.438-12.157-8.09-14.607-14.443-2.613-6.155-2.613-13.888.057-20.067 2.503-6.356 8.515-12.094 14.914-14.452C22.377.08 29.115-.14 34.455 1.494c6.127 1.748 11.912 6.124 15.277 11.837 3.761 6.264 4.817 14.223 2.532 21.375-1.444 4.744-4.423 9.287-8.517 12.537l-7.034-11.676 9.79 5.439c.056 0 .084-.06.056-.117L33.734 29.857 50.32 32.38c.057 0 .08-.027.08-.055l-.106-.083-15.64-5.463 16.252-3.912c.055 0 .055-.051.026-.08l-16.67 1.082 13.053-9.847c.029-.053-.085-.08-.113-.025L32.54 21.405l8.094-14.229c0-.023 0-.083-.051-.053L30.005 19.49l2.03-16.247c0-.03-.057-.057-.112-.03L27.06 18.989 22.8 2.739c-.028-.026-.086-.056-.113 0l1.172 16.856L13.814 6.57c-.034-.03-.058 0-.087.026l7.598 14.415-14.362-7.82c-.027 0-.082.03-.082.055l12.771 10.452L3.35 21.983c-.058.03-.058.08 0 .106l15.807 4.608L3.433 31.3c-.03.023-.03.081 0 .106l16.22-1.883L6.907 40.31c-.027 0-.055.055 0 .087l.17-.057 10.208-5.326 2.397-3.796h2.723l-1.89-1.331 6.316-10.095-3.726 11.924.007.006M70.14 45.01H57.417L67.605 8.773h26.082l-2.486 8.6h-13.31l-1.707 6.168h13.31l-2.243 7.915H73.942L70.14 45.01zm29.443 0H87.008l7.457-26.473h12.576L99.583 45.01zm8.141-28.999H95.148l2.048-7.238h12.575l-2.047 7.238zm24.488 28.999h-12.333l.876-2.963c-2.487 2.088-5.02 3.594-9.067 3.594-4.096 0-6.677-1.944-6.677-6.073 0-4.564 1.804-11.366 4.485-16.126 1.949-3.546 5.458-5.39 9.602-5.39 3.557 0 6.19 1.555 7.215 3.495l3.511-12.774H142.4L132.212 45.01zm-9.458-18.605c-1.122 0-2.242.342-2.875 1.894-.928 2.235-1.756 4.421-1.756 6.606 0 1.021.732 1.895 1.949 1.895.976 0 1.609-.292 2.145-.63l2.537-8.696c-.44-.633-1.221-1.07-2-1.07zm44.97 7.043h-17.353c-.344 1.407-.683 2.381-.683 3.497 0 .535.098 1.894 1.852 1.894s2.535-.68 3.266-3.254h12.333c-1.56 7.53-10.529 10.102-16.037 10.102-7.46 0-13.261-1.068-13.261-8.207 0-3.934 1.998-10.444 4.632-13.891 3.168-4.13 8.677-5.681 13.749-5.681 7.798 0 12.866 1.601 12.866 8.205 0 1.605-.681 5.149-1.364 7.335zm-12.577-8.887c-1.56 0-2.631 1.068-3.314 3.738h5.166c.147-.533.342-1.359.342-1.845 0-1.456-.878-1.893-2.194-1.893zm25.217 20.449h-12.577l10.188-36.237h12.577L180.364 45.01zm16.617 0h-12.579l7.46-26.473h12.577l-7.458 26.473zm8.139-28.999h-12.575l2.047-7.238h12.577l-2.049 7.238zm22.612 2.526l1.095 5.974h-9.626l-2.828 10.056c-.243.776-.44 1.746-.44 2.379 0 1.165.49 1.555 2.195 1.555h2.682l-1.854 6.509h-11.211c-3.706 0-5.12-1.798-5.12-4.52 0-1.114.147-2.332.538-3.69l6.824-24.14h12.578l-1.659 5.877h6.826zM57.16 49.08l3.135-.005-1.998 6.517-3.126.002 1.989-6.515zm10.942.006l4.585-.003 1.177 4.346h.032l1.326-4.348 2.722-.003-2.012 6.503-4.387.016-1.272-4.643h-.021l-1.391 4.634-2.723.002 1.964-6.503v-.002zm15.786.002l3.452-.001.603 4.095 3.158-4.099 3.195-.004-5.267 6.505-3.832.002-1.31-6.499v.001zm16.418.002l7.132-.005-.403 1.316-4.1.005-.397 1.336 3.844-.001-.385 1.255-3.842.001-.398 1.29 4.143-.004-.417 1.319-7.17.005 1.993-6.517zm30.63 1.587l-2.443.001.484-1.58 8.015-.007-.483 1.58-2.441.003-1.497 4.903-3.131.004 1.496-4.905zm12.542-1.595l4.749-.003.231 4.348h.019l2.832-4.35 4.772-.005-1.982 6.517-2.906.002 1.49-4.908h-.023l-3.528 4.91-3.028.004-.428-4.908h-.032l-1.488 4.894-2.66.002 1.982-6.503zm32.559.004l4.582-.003 1.18 4.346h.03l1.327-4.35 2.72-.001-1.991 6.519-4.444-.013-1.234-4.631h-.02l-1.424 4.633-2.722.003 1.996-6.503zm17.356 1.581l-2.445.002.484-1.582 8.017-.006-.482 1.58-2.443.003-1.496 4.92-3.134.003 1.499-4.92zm-76.347.393c-.069-.073-.072-.197-.044-.298.103-.33.518-.548 1.18-.548.39-.001.99.043 1.162.179a.456.456 0 01.177.528h2.776c.327-1.163-.408-1.912-3.542-1.91-2.979.004-4.668.64-5.102 2.059-.112.371-.126.827.181 1.135.768.76 4.231 1.062 4.523 1.472a.329.329 0 01.047.299c-.16.523-.903.657-1.553.657-.413 0-.949-.088-1.103-.258-.146-.171-.146-.433-.062-.6l-2.906.005c-.293 1.01-.417 2.06 3.624 2.057 3.388-.004 4.941-.83 5.331-2.115.193-.63.001-.978-.218-1.202-.752-.773-4.107-1.057-4.471-1.46m45.415-1.968l7.132-.006-.401 1.317-4.102.003-.397 1.336 3.844-.001-.385 1.255-3.842.001-.398 1.292 4.143-.003-.417 1.317-7.171.008 1.994-6.52v.001z" fill="#fff" fill-opacity=".5"/><path d="M244.71 18.537l-6.824 14.669.195-14.67h-12.723l2.437 26.474c-.312 1.55-.826 2.423-1.802 2.854-1.068.474-3.482.39-4.332.343l-.154.009-2.005 7.192 8.584.008c5.07 0 7.558-2.54 11.164-8.173l18.331-28.707H244.71" fill="#231F20"/><path d="M207.581 51.044c-.069-.074-.071-.198-.044-.297.105-.332.518-.55 1.18-.55.39 0 .99.044 1.162.18a.45.45 0 01.177.53h2.776c.329-1.164-.408-1.915-3.542-1.912-2.979.003-4.668.64-5.101 2.06-.113.37-.127.827.18 1.133.768.761 4.231 1.064 4.523 1.474a.322.322 0 01.047.299c-.158.523-.904.655-1.551.657-.415 0-.951-.088-1.105-.26-.144-.171-.144-.431-.062-.599l-2.906.003c-.293 1.01-.417 2.06 3.624 2.059 3.389-.006 4.941-.83 5.333-2.117.192-.63.001-.978-.22-1.2-.752-.773-4.107-1.058-4.471-1.46" fill="#fff" fill-opacity=".5"/><path d="M246.693 44.523a2.273 2.273 0 01-2.278-2.27 2.273 2.273 0 012.278-2.27 2.274 2.274 0 012.278 2.27c0 1.254-1.02 2.27-2.278 2.27zm0-5.029a2.768 2.768 0 00-2.769 2.76 2.769 2.769 0 005.537 0 2.77 2.77 0 00-2.768-2.76z" fill="#231F20"/><path d="M246.218 42.063v-.797h.379c.325-.007.68.014.68.396s-.355.401-.68.401h-.379zm1.584-.38c0-.55-.321-.859-1.009-.859h-1.075v2.846h.5v-1.165h.379l.715 1.165h.55l-.747-1.206c.392-.047.687-.288.687-.78z" fill="#231F20"/><path d="M244.691 18.601l-6.803 14.62.195-14.62h-12.679l2.429 26.381c-.311 1.545-.823 2.414-1.796 2.846-1.064.47-3.47.387-4.318.34l-.152.008-1.999 7.169 8.554.007c5.054 0 7.532-2.53 11.126-8.143L257.515 18.6h-12.824z" fill="#fff" fill-opacity=".5"/></svg>