<svg width="175" height="55" fill="none" xmlns="http://www.w3.org/2000/svg"><g clip-path="url(#clip0_1_799)"><path fill-rule="evenodd" clip-rule="evenodd" d="M13.565 54.369h4.07V32.62h-4.07v21.75zm14.923-.326h3.646V40.32L47.48 54.37V32.948h-3.636v13.486L28.488 32.621v21.422zm27.317-5.267c1.984 1.546 4.366 2.44 6.92 2.44 2.487 0 4.232-.857 4.232-2.748 0-1.648-1.113-2.294-3.062-3.016l-3.155-1.095c-2.908-1.033-5.12-2.542-5.12-6.01 0-3.709 3.348-5.726 7.353-5.726 2.453 0 4.69.617 6.436 1.71v3.678c-1.817-1.342-3.804-2.267-6.358-2.267-2.199 0-3.842.821-3.842 2.532 0 1.546 1.032 2.165 2.848 2.786l3.515 1.234c3.407 1.198 4.97 3.055 4.97 6.11 0 3.843-3.381 5.965-7.817 5.965-2.916 0-5.395-.816-6.92-1.845v-3.748zm24.235 5.593h4.069V32.62h-4.07v21.75zm23.159-3.291c4.587 0 7.039-2.943 7.039-7.588 0-4.68-2.453-7.612-7.039-7.612h-4.536v15.2h4.536zm-8.24-18.457h8.376c6.448 0 10.617 4.248 10.617 10.869 0 6.626-4.169 10.879-10.617 10.879h-8.376V32.62zm39.344 0v3.257h-9.849v5.233h8.833v3.22h-8.835v6.747h9.851v3.29h-13.567V32.622h13.567zm14.445 9.848h4.039c2.39 0 3.738-1.312 3.738-3.328 0-2.017-1.348-3.33-3.738-3.33h-4.039v6.66-.002zm0 3.075v8.825h-3.593V32.62h7.7c4.39 0 7.231 2.262 7.231 6.52 0 3.64-1.577 5.732-4.936 6.269l7.641 8.959h-4.088l-7.398-8.823h-2.555l-.002-.002zM12.143 11.197c1.592-.583 2.832-2.331 2.832-4.736 0-4.006-2.832-6.082-7.363-6.082H0v22.364h8.318c4.532 0 7.364-2.222 7.364-6.41 0-2.369-1.487-4.445-3.539-5.136zm-8.568-1.42v-6.12h4.003c2.514 0 3.858.91 3.858 3.023 0 2.111-1.345 3.095-3.858 3.095H3.575zm0 3.132h4.672c2.48 0 3.825 1.237 3.825 3.278 0 2.003-1.346 3.279-3.823 3.279H3.576v-6.559l-.001.002zM32.29 23.107c5.204 0 8.71-3.133 8.71-9.251V.379h-3.682v13.038c0 4.299-1.77 6.304-5.028 6.304-3.257 0-5.026-2.005-5.026-6.304V.38h-3.681v13.44c0 6.155 3.539 9.288 8.707 9.288zm17.378-1.968c1.522 1.095 4 1.968 6.903 1.968 4.426 0 7.788-2.26 7.788-6.338 0-3.241-1.556-5.209-4.956-6.483L55.9 8.974c-1.806-.654-2.832-1.31-2.832-2.95 0-1.82 1.627-2.694 3.822-2.694 2.549 0 4.532.982 6.338 2.404V1.835C61.493.671 59.262.015 56.818.015c-3.999 0-7.327 2.15-7.327 6.083 0 3.678 2.195 5.28 5.097 6.373l3.152 1.165c1.947.765 3.044 1.458 3.044 3.207 0 2.003-1.734 2.913-4.213 2.913-2.549 0-4.92-.948-6.903-2.586v3.97zM77.515.38h-3.68v22.36h3.68V.38zm10.503 22.335h3.548V8.166l14.931 14.895V.345h-3.538v14.3L88.019 0v22.714zM129.503.384v3.349h-9.558v5.382h8.571v3.312h-8.571v6.937h9.558v3.384h-13.167V.384h13.167zm8.572 20.74c1.522 1.094 4 1.968 6.903 1.968 4.424 0 7.789-2.258 7.789-6.338 0-3.242-1.559-5.207-4.957-6.483l-3.505-1.31c-1.806-.656-2.832-1.312-2.832-2.952 0-1.82 1.628-2.694 3.823-2.694 2.548 0 4.531.984 6.337 2.404V1.82C149.899.656 147.668 0 145.225 0c-4 0-7.328 2.15-7.328 6.083 0 3.678 2.195 5.28 5.097 6.373l3.151 1.165c1.947.765 3.045 1.458 3.045 3.206 0 2.003-1.733 2.914-4.214 2.914-2.548 0-4.92-.946-6.901-2.586v3.969zm22.233 0c1.523 1.094 4.002 1.968 6.904 1.968 4.426 0 7.788-2.258 7.788-6.338 0-3.242-1.558-5.207-4.956-6.483l-3.505-1.31c-1.805-.656-2.832-1.312-2.832-2.952 0-1.82 1.629-2.694 3.822-2.694 2.549 0 4.533.984 6.338 2.404V1.82C172.134.656 169.903 0 167.46 0c-4.002 0-7.328 2.15-7.328 6.083 0 3.678 2.195 5.28 5.097 6.373l3.152 1.165c1.947.765 3.044 1.458 3.044 3.206 0 2.003-1.734 2.914-4.213 2.914-2.549 0-4.921-.946-6.904-2.586v3.969z" fill="#fff" fill-opacity=".5"/></g><defs><clipPath id="clip0_1_799"><path fill="#fff" d="M0 0h175v54.369H0z"/></clipPath></defs></svg>